<?xml version="1.0" standalone="yes"?>
<svg xmlns="http://www.w3.org/2000/svg" width="442" height="419">
<path style="fill:#f0f2f2; stroke:none;" d="M0 0L0 419L442 419L442 0L0 0z"/>
<path style="fill:#a9dfef; stroke:none;" d="M76.6667 13.3333L77.3333 13.6667L76.6667 13.3333z"/>
<path style="fill:#abb5b8; stroke:none;" d="M78.6667 13.3333L79.3333 13.6667L78.6667 13.3333z"/>
<path style="fill:#39b7de; stroke:none;" d="M138 395C127.89 378.282 115.325 362.429 103.349 347.001C99.5722 342.136 89.3838 339.12 88.4221 332.999C87.7 328.404 91.3927 323.065 93.0895 319C97.7737 307.779 109.118 292.149 109 280L115 271L115 270L111 262L107 256L105 256L106 254L104 254L102 246L100 247L101 244C90.4923 232.418 89.5661 204.617 90.9252 190C96.5139 129.892 145.86 85.7803 204 76.4383C222.638 73.4435 242.692 74.3193 261 78.8951C270.139 81.1793 281.899 88.0883 291 88L291 90L293 89L293 91L295 90L300 93L300 95L302 94L307 97L308 100L310 99L336 126L337 127L339 126L346 137L345 139L348 140L349 146L351 146L351 147L350 148L352 147L352 148L354 152L353 154L354 157L369.167 174L394.833 203L414 223L414 97C414 73.0752 415.872 49.7634 397.829 31.0895C375.357 7.82959 343.393 13 314 13L118 13C85.3129 13 53.1886 12.163 36.2701 46C29.4392 59.6617 30 75.1448 30 90L30 153L30 287C30 308.96 26.2584 334.976 33.6991 356C45.9569 390.635 76.7791 396 109 396C118.195 396 129.158 397.614 138 395z"/>
<path style="fill:#abb5b8; stroke:none;" d="M364.667 13.3333L365.333 13.6667L364.667 13.3333z"/>
<path style="fill:#a9dfef; stroke:none;" d="M366.667 13.3333L367.333 13.6667L366.667 13.3333M72.6667 14.3333L73.3333 14.6667L72.6667 14.3333z"/>
<path style="fill:#abb5b8; stroke:none;" d="M74 14L75 15L74 14z"/>
<path style="fill:#a9dfef; stroke:none;" d="M370 14L370 15L373 15L370 14M69.6667 15.3333L70.3333 15.6667L69.6667 15.3333z"/>
<path style="fill:#abb5b8; stroke:none;" d="M71 15L72 16L71 15z"/>
<path style="fill:#a9dfef; stroke:none;" d="M373 15L373 16L376 16L373 15M66.6667 16.3333L67.3333 16.6667L66.6667 16.3333z"/>
<path style="fill:#abb5b8; stroke:none;" d="M68 16L69 17L68 16z"/>
<path style="fill:#a9dfef; stroke:none;" d="M376.667 16.3333L377.333 16.6667L376.667 16.3333M64.6667 17.3333L65.3333 17.6667L64.6667 17.3333z"/>
<path style="fill:#abb5b8; stroke:none;" d="M378 17L379 18L378 17z"/>
<path style="fill:#a9dfef; stroke:none;" d="M379 17L380 18L379 17M62.6667 18.3333L63.3333 18.6667L62.6667 18.3333z"/>
<path style="fill:#abb5b8; stroke:none;" d="M380 18L381 19L380 18z"/>
<path style="fill:#a9dfef; stroke:none;" d="M381 18L382 19L381 18M61 19L62 20L61 19z"/>
<path style="fill:#abb5b8; stroke:none;" d="M382 19L383 20L382 19z"/>
<path style="fill:#a9dfef; stroke:none;" d="M383 19L384 20L383 19M59 20L60 21L59 20M384.667 20.3333L385.333 20.6667L384.667 20.3333M57.6667 21.3333L58.3333 21.6667L57.6667 21.3333M386 21L387 22L386 21M56 22L57 23L56 22M387.667 22.3333L388.333 22.6667L387.667 22.3333M54 23L55 24L54 23z"/>
<path style="fill:#abb5b8; stroke:none;" d="M55 23L56 24L55 23z"/>
<path style="fill:#a9dfef; stroke:none;" d="M389 23L390 24L389 23M53 24L54 25L53 24M390 24L390 25L395 28L390 24M52 25L53 26L52 25z"/>
<path style="fill:#abb5b8; stroke:none;" d="M391 25L392 26L391 25z"/>
<path style="fill:#a9dfef; stroke:none;" d="M51 26L52 27L51 26z"/>
<path style="fill:#abb5b8; stroke:none;" d="M392 26L393 27L392 26z"/>
<path style="fill:#a9dfef; stroke:none;" d="M49 27L50 28L49 27z"/>
<path style="fill:#abb5b8; stroke:none;" d="M50 27L51 28L50 27M393 27L394 28L393 27z"/>
<path style="fill:#a9dfef; stroke:none;" d="M48 28L49 29L48 28M395 28L396 29L395 28M47 29L45 32L47 29M396 29L397 30L396 29z"/>
<path style="fill:#abb5b8; stroke:none;" d="M47 30L48 31L47 30z"/>
<path style="fill:#a9dfef; stroke:none;" d="M397 30L398 31L397 30z"/>
<path style="fill:#abb5b8; stroke:none;" d="M46 31L47 32L46 31z"/>
<path style="fill:#a9dfef; stroke:none;" d="M398 31L399 32L398 31M44.3333 32.6667L44.6667 33.3333L44.3333 32.6667M399 32L400 33L399 32M400 33L402 37L403 37L400 33M43 34L44 35L43 34z"/>
<path style="fill:#abb5b8; stroke:none;" d="M400 34L401 35L400 34z"/>
<path style="fill:#a9dfef; stroke:none;" d="M42 35L43 36L42 35z"/>
<path style="fill:#abb5b8; stroke:none;" d="M401 35L402 36L401 35z"/>
<path style="fill:#a9dfef; stroke:none;" d="M41 36L42 37L41 36z"/>
<path style="fill:#abb5b8; stroke:none;" d="M41 37L42 38L41 37z"/>
<path style="fill:#a9dfef; stroke:none;" d="M403 37L404 38L403 37M40 38L41 39L40 38M404 38L407 42L404 38M39 39L40 40L39 39z"/>
<path style="fill:#abb5b8; stroke:none;" d="M39 40L40 41L39 40z"/>
<path style="fill:#a9dfef; stroke:none;" d="M38 41L39 42L38 41z"/>
<path style="fill:#abb5b8; stroke:none;" d="M405 41L406 42L405 41z"/>
<path style="fill:#a9dfef; stroke:none;" d="M37.3333 42.6667L37.6667 43.3333L37.3333 42.6667z"/>
<path style="fill:#abb5b8; stroke:none;" d="M406 42L407 43L406 42z"/>
<path style="fill:#a9dfef; stroke:none;" d="M407 43L409 48L410 48L407 43M36.3333 44.6667L36.6667 45.3333L36.3333 44.6667z"/>
<path style="fill:#abb5b8; stroke:none;" d="M407 44L408 45L407 44z"/>
<path style="fill:#a9dfef; stroke:none;" d="M35.3333 46.6667L35.6667 47.3333L35.3333 46.6667z"/>
<path style="fill:#abb5b8; stroke:none;" d="M408 46L409 47L408 46z"/>
<path style="fill:#a9dfef; stroke:none;" d="M34.3333 48.6667L34.6667 49.3333L34.3333 48.6667z"/>
<path style="fill:#abb5b8; stroke:none;" d="M409 48L410 49L409 48z"/>
<path style="fill:#a9dfef; stroke:none;" d="M410 49L411 50L410 49z"/>
<path style="fill:#abb5b8; stroke:none;" d="M410.333 50.6667L410.667 51.3333L410.333 50.6667z"/>
<path style="fill:#a9dfef; stroke:none;" d="M33.3333 51.6667L33.6667 52.3333L33.3333 51.6667M411 51L414 67L415 67L411 51M32.3333 54.6667L32.6667 55.3333L32.3333 54.6667z"/>
<path style="fill:#abb5b8; stroke:none;" d="M411 54L412 55L411 54z"/>
<path style="fill:#a9dfef; stroke:none;" d="M31 57L31 60L32 60L31 57z"/>
<path style="fill:#abb5b8; stroke:none;" d="M412 57L413 58L412 57M31.3333 60.6667L31.6667 61.3333L31.3333 60.6667z"/>
<path style="fill:#a9dfef; stroke:none;" d="M30 62L30 67L31 67L30 62z"/>
<path style="fill:#abb5b8; stroke:none;" d="M30 67L31 68L30 67M414 67L414 344L415 344L415 149L415 92L414 67z"/>
<path style="fill:#a9dfef; stroke:none;" d="M415 69L415 343L416 343L416 150L416 94L415 69M211 75L211 76L218 76L211 75z"/>
<path style="fill:#f0f2f2; stroke:none;" d="M218 75.4244C197.364 78.1339 177.795 81.6234 159 91.2592C117.193 112.692 87.8101 157.155 91.0895 205C92.7733 229.566 104.928 245.443 113.934 267C116.048 272.06 111.361 278.518 109.309 283C103.397 295.912 97.8781 309.01 92.1397 322C89.4932 327.991 85.434 340.429 97.0008 339.566C123.484 337.591 147.607 314.976 174 312.111C186.274 310.779 201.191 319.4 214 319.961C259.028 321.932 304.994 307.883 334.536 272C372.673 225.679 369.449 157.628 326.91 115.09C309.249 97.4285 286.06 85.6061 262 79.6266C248.221 76.2021 232.176 73.5631 218 75.4244z"/>
<path style="fill:#a9dfef; stroke:none;" d="M234 75L234 76L241 76L234 75z"/>
<path style="fill:#abb5b8; stroke:none;" d="M203.667 76.3333L204.333 76.6667L203.667 76.3333z"/>
<path style="fill:#a9dfef; stroke:none;" d="M205.667 76.3333L206.333 76.6667L205.667 76.3333M245 76L245 77L248 77L245 76z"/>
<path style="fill:#abb5b8; stroke:none;" d="M248.667 76.3333L249.333 76.6667L248.667 76.3333z"/>
<path style="fill:#a9dfef; stroke:none;" d="M198 77L198 78L201 78L198 77M251 77L251 78L254 78L251 77z"/>
<path style="fill:#abb5b8; stroke:none;" d="M254 77L255 78L254 77M193 78L194 79L193 78z"/>
<path style="fill:#a9dfef; stroke:none;" d="M194.667 78.3333L195.333 78.6667L194.667 78.3333M257 78L258 79L257 78z"/>
<path style="fill:#abb5b8; stroke:none;" d="M258.667 78.3333L259.333 78.6667L258.667 78.3333z"/>
<path style="fill:#a9dfef; stroke:none;" d="M190.667 79.3333L191.333 79.6667L190.667 79.3333M261.667 79.3333L262.333 79.6667L261.667 79.3333z"/>
<path style="fill:#abb5b8; stroke:none;" d="M263 79L264 80L263 79M185 80L186 81L185 80z"/>
<path style="fill:#a9dfef; stroke:none;" d="M186.667 80.3333L187.333 80.6667L186.667 80.3333M265.667 80.3333L266.333 80.6667L265.667 80.3333M182.667 81.3333L183.333 81.6667L182.667 81.3333M269 81L270 82L269 81z"/>
<path style="fill:#abb5b8; stroke:none;" d="M270 81L271 82L270 81z"/>
<path style="fill:#a9dfef; stroke:none;" d="M179.667 82.3333L180.333 82.6667L179.667 82.3333M272 82L273 83L272 82z"/>
<path style="fill:#abb5b8; stroke:none;" d="M273 82L274 83L273 82z"/>
<path style="fill:#2a8fac; stroke:none;" d="M275 82L276 83L275 82z"/>
<path style="fill:#a9dfef; stroke:none;" d="M176.667 83.3333L177.333 83.6667L176.667 83.3333M275 83L276 84L275 83z"/>
<path style="fill:#abb5b8; stroke:none;" d="M276 83L277 84L276 83z"/>
<path style="fill:#2a8fac; stroke:none;" d="M278 83L279 84L278 83z"/>
<path style="fill:#abb5b8; stroke:none;" d="M173 84L174 85L173 84z"/>
<path style="fill:#a9dfef; stroke:none;" d="M174 84L175 85L174 84M278 84L279 85L278 84z"/>
<path style="fill:#abb5b8; stroke:none;" d="M279 84L280 85L279 84z"/>
<path style="fill:#a9dfef; stroke:none;" d="M171 85L172 86L171 85M280.667 85.3333L281.333 85.6667L280.667 85.3333M168.667 86.3333L169.333 86.6667L168.667 86.3333M283 86L284 87L283 86z"/>
<path style="fill:#abb5b8; stroke:none;" d="M284 86L285 87L284 86z"/>
<path style="fill:#a9dfef; stroke:none;" d="M166.667 87.3333L167.333 87.6667L166.667 87.3333M285 87L286 88L285 87z"/>
<path style="fill:#abb5b8; stroke:none;" d="M286 87L287 88L286 87z"/>
<path style="fill:#a9dfef; stroke:none;" d="M164 88L165 89L164 88M288 88L289 89L288 88z"/>
<path style="fill:#2a8fac; stroke:none;" d="M290 88L291 89L290 88z"/>
<path style="fill:#a9dfef; stroke:none;" d="M162 89L163 90L162 89M290 89L291 90L290 89z"/>
<path style="fill:#2a8fac; stroke:none;" d="M292 89L293 90L292 89z"/>
<path style="fill:#a9dfef; stroke:none;" d="M160 90L161 91L160 90M217 90L217 91L236 91L217 90M292 90L293 91L292 90z"/>
<path style="fill:#2a8fac; stroke:none;" d="M294 90L295 91L294 90z"/>
<path style="fill:#a9dfef; stroke:none;" d="M158 91L159 92L158 91M207 91L207 92L211 92L207 91z"/>
<path style="fill:#abb5b8; stroke:none;" d="M211.667 91.3333L212.333 91.6667L211.667 91.3333z"/>
<path style="fill:#39b7de; stroke:none;" d="M213.667 91.3333L214.333 91.6667L213.667 91.3333z"/>
<path style="fill:#2a8fac; stroke:none;" d="M192 95L192 96L200 96L200 94L223 92.1698L246 93C230.048 86.3038 208.278 92.808 192 95z"/>
<path style="fill:#39b7de; stroke:none;" d="M236 91L236 92L240 92L236 91z"/>
<path style="fill:#abb5b8; stroke:none;" d="M240 91L240 92L243 92L240 91z"/>
<path style="fill:#a9dfef; stroke:none;" d="M243.667 91.3333L244.333 91.6667L243.667 91.3333M293.667 91.3333L294.333 91.6667L293.667 91.3333M156 92L157 93L156 92M201.667 92.3333L202.333 92.6667L201.667 92.3333z"/>
<path style="fill:#abb5b8; stroke:none;" d="M203 92L204 93L203 92z"/>
<path style="fill:#39b7de; stroke:none;" d="M204 92L204 93L207 93L204 92M200 94L200 96L191 95L187 96L187 97L189 97L189 98L184 97L184 98L186 98L186 99L179 99L179 100L182 101L182 102L176 100L162 111L152 113L154 115L151 116L151 119L141 125L142 128L137 127L135 132L132 131L131 132C130.333 136.516 128.075 139.067 124 141L124 142L126 141L126 142L121 147L123 146L123 147L118 151L120 154L117 153L118 156L116 155L117 158L115 157L116 163L113 162L114 165L112 164C112.983 166.95 113.487 167.622 111 167C111.983 169.95 112.487 170.622 110 170L110 180L109 180L109 178L108 178L107 211L108 211L108 208L109 208L109 222C111.436 222 110.615 222.786 110 225L111 228L115 232L115 233L113 234L114 236L116 241L118 240L117 243L121 250L123 253L133 264L131 272L132 275L130 274L131 277L129 276C129.501 279.006 129.699 281.675 127 281L128 284L126 283L127 286L125 285L127 288L124 287L122 292C122.609 295.631 122.15 297.052 119 299C119.453 301.457 119.833 303 117 303L118 306L116 305L119 308L117 314L118 314L124 314L127 313L127 311L130 312L132 309C146.435 311.135 160.512 295.94 175 295.935C185.741 295.932 197.052 302.702 208 303.829C246.802 307.825 286.676 298.232 315 269.999C323.382 261.645 338.749 245.892 338 233L340 228C348.473 221.18 346.916 196.79 345.714 187C345.23 183.062 345.133 177.636 342 175L340 168L341 165L338 163L339 160L338 158L336 158L337 156L335 152L333 152L334 150L332 150L332 149L333 148L331 145L329 145L330 143L328 140L327 139L325 140L325 136L307 118L306 117L304 118L303 115L301 117L299 112C296.351 112.53 295.393 112.428 296 110C292.849 110.525 290.4 109.399 291 107L288 108L289 106L287 105L284 106L285 104L283 103L280 104L281 102L278 103L279 101C276.05 101.983 275.378 102.487 276 100L273 101L274 99C271.05 99.9833 270.378 100.487 271 98C268.05 98.9833 267.378 99.4869 268 97L265 96C262.05 96.9833 261.378 97.4869 262 95C258.984 96.0052 257.295 96.8211 258 94C254.337 95.221 248.05 95.7986 249 92L223 92.0895L200 94z"/>
<path style="fill:#a9dfef; stroke:none;" d="M249 92L249 93L252 93L249 92M295.667 92.3333L296.333 92.6667L295.667 92.3333M154 93L155 94L154 93M196.667 93.3333L197.333 93.6667L196.667 93.3333z"/>
<path style="fill:#abb5b8; stroke:none;" d="M198 93L199 94L198 93z"/>
<path style="fill:#39b7de; stroke:none;" d="M199 93L200 94L199 93z"/>
<path style="fill:#2a8fac; stroke:none;" d="M248 93L248 94L257 95L248 93z"/>
<path style="fill:#39b7de; stroke:none;" d="M252.667 93.3333L253.333 93.6667L252.667 93.3333z"/>
<path style="fill:#abb5b8; stroke:none;" d="M254 93L255 94L254 93z"/>
<path style="fill:#a9dfef; stroke:none;" d="M255.667 93.3333L256.333 93.6667L255.667 93.3333M297 93L298 94L297 93z"/>
<path style="fill:#2a8fac; stroke:none;" d="M299 93L300 94L299 93z"/>
<path style="fill:#abb5b8; stroke:none;" d="M152 94L153 95L152 94z"/>
<path style="fill:#a9dfef; stroke:none;" d="M153 94L154 95L153 94M192.667 94.3333L193.333 94.6667L192.667 94.3333z"/>
<path style="fill:#39b7de; stroke:none;" d="M194.667 94.3333L195.333 94.6667L194.667 94.3333z"/>
<path style="fill:#abb5b8; stroke:none;" d="M258 94L259 95L258 94z"/>
<path style="fill:#a9dfef; stroke:none;" d="M259.667 94.3333L260.333 94.6667L259.667 94.3333M299 94L300 95L299 94z"/>
<path style="fill:#2a8fac; stroke:none;" d="M301 94L302 95L301 94z"/>
<path style="fill:#a9dfef; stroke:none;" d="M151 95L152 96L151 95M189 95L190 96L189 95z"/>
<path style="fill:#abb5b8; stroke:none;" d="M190 95L191 96L190 95z"/>
<path style="fill:#2a8fac; stroke:none;" d="M257 95L257 96L261 96L257 95z"/>
<path style="fill:#abb5b8; stroke:none;" d="M262 95L263 96L262 95z"/>
<path style="fill:#a9dfef; stroke:none;" d="M263 95L264 96L263 95M301 95L302 96L301 95M149 96L150 97L149 96M186 96L187 97L186 96z"/>
<path style="fill:#2a8fac; stroke:none;" d="M189.667 96.3333L190.333 96.6667L189.667 96.3333M261 96L261 97L264 97L261 96z"/>
<path style="fill:#abb5b8; stroke:none;" d="M265 96L266 97L265 96z"/>
<path style="fill:#a9dfef; stroke:none;" d="M266 96L267 97L266 96M302 96L303 97L302 96z"/>
<path style="fill:#abb5b8; stroke:none;" d="M303 96L304 97L303 96z"/>
<path style="fill:#2a8fac; stroke:none;" d="M304 96L305 97L304 96z"/>
<path style="fill:#a9dfef; stroke:none;" d="M148 97L149 98L148 97M183 97L184 98L183 97z"/>
<path style="fill:#2a8fac; stroke:none;" d="M186 97L186 98L189 98L186 97M191 97L192 98L191 97M265.667 97.3333L266.333 97.6667L265.667 97.3333z"/>
<path style="fill:#abb5b8; stroke:none;" d="M268 97L269 98L268 97z"/>
<path style="fill:#a9dfef; stroke:none;" d="M269 97L270 98L269 97M304 97L305 98L304 97z"/>
<path style="fill:#2a8fac; stroke:none;" d="M306 97L307 98L306 97z"/>
<path style="fill:#a9dfef; stroke:none;" d="M146 98L147 99L146 98M180 98L181 99L180 98z"/>
<path style="fill:#abb5b8; stroke:none;" d="M181 98L182 99L181 98z"/>
<path style="fill:#2a8fac; stroke:none;" d="M182 98L182 99L186 99L182 98M267 98L267 99L270 99L267 98z"/>
<path style="fill:#abb5b8; stroke:none;" d="M271 98L272 99L271 98z"/>
<path style="fill:#a9dfef; stroke:none;" d="M272 98L273 99L272 98z"/>
<path style="fill:#abb5b8; stroke:none;" d="M306 98L307 99L306 98z"/>
<path style="fill:#a9dfef; stroke:none;" d="M177.667 99.3333L178.333 99.6667L177.667 99.3333z"/>
<path style="fill:#2a8fac; stroke:none;" d="M180.667 99.3333L181.333 99.6667L180.667 99.3333M189.667 99.3333L190.333 99.6667L189.667 99.3333M270 99L270 100L273 100L270 99z"/>
<path style="fill:#a9dfef; stroke:none;" d="M274 99L275 100L274 99M307 99L308 100L307 99z"/>
<path style="fill:#2a8fac; stroke:none;" d="M309 99L311 101L309 99z"/>
<path style="fill:#a9dfef; stroke:none;" d="M143 100L144 101L143 100M175 100L176 101L175 100z"/>
<path style="fill:#2a8fac; stroke:none;" d="M177 100L177 101L182 102L182 101L177 100M273.667 100.333L274.333 100.667L273.667 100.333z"/>
<path style="fill:#abb5b8; stroke:none;" d="M276 100L277 101L276 100z"/>
<path style="fill:#a9dfef; stroke:none;" d="M277 100L278 101L277 100z"/>
<path style="fill:#abb5b8; stroke:none;" d="M309 100L310 101L309 100z"/>
<path style="fill:#a9dfef; stroke:none;" d="M142 101L143 102L142 101M173 101L174 102L173 101z"/>
<path style="fill:#39b7de; stroke:none;" d="M174 101L175 102L174 101z"/>
<path style="fill:#2a8fac; stroke:none;" d="M156 111L156 112L162 111L177 101L156 111M275 101L275 102L278 102L275 101z"/>
<path style="fill:#a9dfef; stroke:none;" d="M279 101L280 102L279 101M310 101L311 102L310 101z"/>
<path style="fill:#abb5b8; stroke:none;" d="M140 102L141 103L140 102z"/>
<path style="fill:#a9dfef; stroke:none;" d="M170 102L171 103L170 102z"/>
<path style="fill:#abb5b8; stroke:none;" d="M171 102L172 103L171 102z"/>
<path style="fill:#2a8fac; stroke:none;" d="M278.667 102.333L279.333 102.667L278.667 102.333z"/>
<path style="fill:#a9dfef; stroke:none;" d="M281 102L282 103L281 102M311 102L312 103L311 102M139 103L140 104L139 103M168 103L169 104L168 103z"/>
<path style="fill:#abb5b8; stroke:none;" d="M169 103L170 104L169 103z"/>
<path style="fill:#2a8fac; stroke:none;" d="M280.667 103.333L281.333 103.667L280.667 103.333z"/>
<path style="fill:#a9dfef; stroke:none;" d="M283 103L284 104L283 103z"/>
<path style="fill:#abb5b8; stroke:none;" d="M313 103L314 104L313 103z"/>
<path style="fill:#a9dfef; stroke:none;" d="M138 104L139 105L138 104M166 104L167 105L166 104z"/>
<path style="fill:#abb5b8; stroke:none;" d="M167 104L168 105L167 104z"/>
<path style="fill:#2a8fac; stroke:none;" d="M283 104L284 105L283 104z"/>
<path style="fill:#a9dfef; stroke:none;" d="M285 104L286 105L285 104M314 104L315 105L314 104z"/>
<path style="fill:#abb5b8; stroke:none;" d="M136 105L137 106L136 105z"/>
<path style="fill:#a9dfef; stroke:none;" d="M164 105L165 106L164 105z"/>
<path style="fill:#abb5b8; stroke:none;" d="M165 105L166 106L165 105z"/>
<path style="fill:#2a8fac; stroke:none;" d="M284.667 105.333L285.333 105.667L284.667 105.333z"/>
<path style="fill:#a9dfef; stroke:none;" d="M287 105L288 106L287 105M315 105L316 106L315 105M135 106L136 107L135 106M163 106L164 107L163 106z"/>
<path style="fill:#2a8fac; stroke:none;" d="M287 106L288 107L287 106z"/>
<path style="fill:#a9dfef; stroke:none;" d="M289 106L290 107L289 106z"/>
<path style="fill:#abb5b8; stroke:none;" d="M317 106L318 107L317 106z"/>
<path style="fill:#2a8fac; stroke:none;" d="M318 106L319 107L318 106z"/>
<path style="fill:#a9dfef; stroke:none;" d="M134 107L135 108L134 107M161 107L162 108L161 107z"/>
<path style="fill:#2a8fac; stroke:none;" d="M166 107L164 111L167 110L166 107M288.667 107.333L289.333 107.667L288.667 107.333z"/>
<path style="fill:#a9dfef; stroke:none;" d="M291 107L292 108L291 107M318 107L319 108L318 107M133 108L134 109L133 108M159 108L160 109L159 108z"/>
<path style="fill:#39b7de; stroke:none;" d="M160 108L161 109L160 108z"/>
<path style="fill:#2a8fac; stroke:none;" d="M290 108L290 109L295 111L295 110L290 108z"/>
<path style="fill:#abb5b8; stroke:none;" d="M292 108L293 109L292 108z"/>
<path style="fill:#a9dfef; stroke:none;" d="M293 108L294 109L293 108M319 108L320 109L319 108z"/>
<path style="fill:#abb5b8; stroke:none;" d="M158 109L159 110L158 109z"/>
<path style="fill:#a9dfef; stroke:none;" d="M294 109L295 110L294 109M320 109L321 110L320 109z"/>
<path style="fill:#2a8fac; stroke:none;" d="M322 109L325 112L322 109z"/>
<path style="fill:#abb5b8; stroke:none;" d="M130 110L131 111L130 110z"/>
<path style="fill:#a9dfef; stroke:none;" d="M156 110L157 111L156 110M296 110L298 112L296 110M321 110L322 111L321 110M129 111L130 112L129 111M154 111L155 112L154 111z"/>
<path style="fill:#2a8fac; stroke:none;" d="M159 111L158 114L159 114L159 111M295.667 111.333L296.333 111.667L295.667 111.333z"/>
<path style="fill:#a9dfef; stroke:none;" d="M322 111L323 112L322 111M128 112L129 113L128 112M153 112L154 113L153 112z"/>
<path style="fill:#2a8fac; stroke:none;" d="M155 112L154 114L156 114L155 112M297 112L298 113L297 112z"/>
<path style="fill:#a9dfef; stroke:none;" d="M299 112L301 114L299 112M127 113L128 114L127 113z"/>
<path style="fill:#2a8fac; stroke:none;" d="M298.667 113.333L299.333 113.667L298.667 113.333z"/>
<path style="fill:#a9dfef; stroke:none;" d="M126 114L127 115L126 114M150 114L151 115L150 114z"/>
<path style="fill:#2a8fac; stroke:none;" d="M133 132L137 127L142 128L141 125L151 119L151 116L154 115C147.206 113.557 135.645 126.344 133 132M300 114L301 117L302 117L300 114z"/>
<path style="fill:#abb5b8; stroke:none;" d="M301 114L302 115L301 114z"/>
<path style="fill:#a9dfef; stroke:none;" d="M125 115L126 116L125 115z"/>
<path style="fill:#abb5b8; stroke:none;" d="M149 115L150 116L149 115z"/>
<path style="fill:#a9dfef; stroke:none;" d="M303 115L304 116L303 115z"/>
<path style="fill:#2a8fac; stroke:none;" d="M328 115L330 117L328 115z"/>
<path style="fill:#abb5b8; stroke:none;" d="M124 116L125 117L124 116z"/>
<path style="fill:#39b7de; stroke:none;" d="M148 116L149 117L148 116z"/>
<path style="fill:#2a8fac; stroke:none;" d="M153 116L154 117L153 116M303 116L305 118L303 116z"/>
<path style="fill:#abb5b8; stroke:none;" d="M304 116L305 117L304 116M123 117L124 118L123 117z"/>
<path style="fill:#a9dfef; stroke:none;" d="M146 117L147 118L146 117z"/>
<path style="fill:#abb5b8; stroke:none;" d="M122 118L123 119L122 118z"/>
<path style="fill:#a9dfef; stroke:none;" d="M145 118L146 119L145 118z"/>
<path style="fill:#2a8fac; stroke:none;" d="M305 118L306 119L305 118z"/>
<path style="fill:#a9dfef; stroke:none;" d="M307 118L310 121L307 118z"/>
<path style="fill:#2a8fac; stroke:none;" d="M331 118L333 120L331 118z"/>
<path style="fill:#abb5b8; stroke:none;" d="M144 119L145 120L144 119z"/>
<path style="fill:#2a8fac; stroke:none;" d="M148 119L149 120L148 119M306 119L312 124L306 119z"/>
<path style="fill:#a9dfef; stroke:none;" d="M330 119L331 120L330 119z"/>
<path style="fill:#abb5b8; stroke:none;" d="M143 120L144 121L143 120z"/>
<path style="fill:#a9dfef; stroke:none;" d="M331 120L332 121L331 120z"/>
<path style="fill:#39b7de; stroke:none;" d="M142 121L143 122L142 121z"/>
<path style="fill:#abb5b8; stroke:none;" d="M310 121L311 122L310 121z"/>
<path style="fill:#a9dfef; stroke:none;" d="M332 121L333 122L332 121M119 122L120 123L119 122M140 122L139 124L140 122z"/>
<path style="fill:#39b7de; stroke:none;" d="M141 122L142 123L141 122z"/>
<path style="fill:#abb5b8; stroke:none;" d="M311 122L312 123L311 122z"/>
<path style="fill:#a9dfef; stroke:none;" d="M333 122L335 124L333 122z"/>
<path style="fill:#2a8fac; stroke:none;" d="M334 122L335 123L334 122z"/>
<path style="fill:#a9dfef; stroke:none;" d="M118 123L119 124L118 123z"/>
<path style="fill:#39b7de; stroke:none;" d="M140 123L141 124L140 123z"/>
<path style="fill:#2a8fac; stroke:none;" d="M335 123L337 125L335 123z"/>
<path style="fill:#a9dfef; stroke:none;" d="M117 124L118 125L117 124M138 124L139 125L138 124z"/>
<path style="fill:#2a8fac; stroke:none;" d="M312 124L318 130L312 124z"/>
<path style="fill:#abb5b8; stroke:none;" d="M335 124L336 125L335 124M116 125L117 126L116 125z"/>
<path style="fill:#a9dfef; stroke:none;" d="M137 125L138 126L137 125z"/>
<path style="fill:#2a8fac; stroke:none;" d="M143 125L144 126L143 125M337 125L338 126L337 125z"/>
<path style="fill:#a9dfef; stroke:none;" d="M136 126L137 127L136 126M336 126L337 127L336 126z"/>
<path style="fill:#2a8fac; stroke:none;" d="M338 126L340 129L338 126z"/>
<path style="fill:#a9dfef; stroke:none;" d="M115 127L116 128L115 127M135 127L136 128L135 127M337 127L338 128L337 127M114 128L115 129L114 128M134 128L135 129L134 128z"/>
<path style="fill:#abb5b8; stroke:none;" d="M338 128L339 129L338 128z"/>
<path style="fill:#a9dfef; stroke:none;" d="M113 129L114 130L113 129z"/>
<path style="fill:#abb5b8; stroke:none;" d="M339 129L340 130L339 129z"/>
<path style="fill:#2a8fac; stroke:none;" d="M318 130L323 135L318 130z"/>
<path style="fill:#abb5b8; stroke:none;" d="M319 130L320 131L319 130z"/>
<path style="fill:#a9dfef; stroke:none;" d="M339 130L340 131L339 130M112 131L113 132L112 131z"/>
<path style="fill:#abb5b8; stroke:none;" d="M320 131L321 132L320 131z"/>
<path style="fill:#a9dfef; stroke:none;" d="M340 131L341 132L340 131M111 132L112 133L111 132z"/>
<path style="fill:#2a8fac; stroke:none;" d="M132 132L133 133L132 132z"/>
<path style="fill:#a9dfef; stroke:none;" d="M321 132L322 133L321 132z"/>
<path style="fill:#abb5b8; stroke:none;" d="M341 132L342 133L341 132M110 133L111 134L110 133M130 133L131 134L130 133z"/>
<path style="fill:#2a8fac; stroke:none;" d="M131 133L126 141L127 141L131 133z"/>
<path style="fill:#a9dfef; stroke:none;" d="M322 133L323 134L322 133M110 134L111 135L110 134M129 134L130 135L129 134M323 134L324 135L323 134M342 134L343 135L342 134M109 135L110 136L109 135M128 135L129 136L128 135z"/>
<path style="fill:#abb5b8; stroke:none;" d="M343 135L344 136L343 135z"/>
<path style="fill:#a9dfef; stroke:none;" d="M127 136L128 137L127 136z"/>
<path style="fill:#2a8fac; stroke:none;" d="M323 136L324 137L323 136z"/>
<path style="fill:#a9dfef; stroke:none;" d="M108 137L109 138L108 137z"/>
<path style="fill:#39b7de; stroke:none;" d="M127 137L128 138L127 137z"/>
<path style="fill:#2a8fac; stroke:none;" d="M324 137L325 140L326 140L324 137z"/>
<path style="fill:#abb5b8; stroke:none;" d="M325 137L326 138L325 137z"/>
<path style="fill:#a9dfef; stroke:none;" d="M344 137L345 138L344 137z"/>
<path style="fill:#2a8fac; stroke:none;" d="M345 137L346 138L345 137z"/>
<path style="fill:#a9dfef; stroke:none;" d="M107 138L108 139L107 138z"/>
<path style="fill:#abb5b8; stroke:none;" d="M126 138L127 139L126 138z"/>
<path style="fill:#a9dfef; stroke:none;" d="M326 138L327 139L326 138M125 139L126 140L125 139M327 139L328 140L327 139M345 139L346 140L345 139M106 140L107 141L106 140M124 140L125 141L124 140z"/>
<path style="fill:#2a8fac; stroke:none;" d="M326 140L327 141L326 140z"/>
<path style="fill:#abb5b8; stroke:none;" d="M346 140L347 141L346 140z"/>
<path style="fill:#2a8fac; stroke:none;" d="M347 140L348 141L347 140M125 141L123 145L125 141M327 141L329 143L327 141z"/>
<path style="fill:#a9dfef; stroke:none;" d="M328 141L329 142L328 141M346 141L347 142L346 141z"/>
<path style="fill:#2a8fac; stroke:none;" d="M348 141L349 142L348 141z"/>
<path style="fill:#a9dfef; stroke:none;" d="M105 142L106 143L105 142M123 142L124 143L123 142M329 142L330 143L329 142M347 142L348 143L347 142z"/>
<path style="fill:#abb5b8; stroke:none;" d="M104 143L105 144L104 143z"/>
<path style="fill:#a9dfef; stroke:none;" d="M122 143L123 144L122 143z"/>
<path style="fill:#2a8fac; stroke:none;" d="M126 144L125 147L126 147L126 144M329 144L330 145L329 144z"/>
<path style="fill:#a9dfef; stroke:none;" d="M330 144L331 145L330 144M348 144L349 145L348 144z"/>
<path style="fill:#2a8fac; stroke:none;" d="M349 144L350 145L349 144z"/>
<path style="fill:#a9dfef; stroke:none;" d="M103 145L104 146L103 145M121 145L122 146L121 145M331 145L332 146L331 145z"/>
<path style="fill:#2a8fac; stroke:none;" d="M122 146L119 152L120 152L122 146M330 146L331 149L332 149L330 146z"/>
<path style="fill:#abb5b8; stroke:none;" d="M331 146L332 147L331 146z"/>
<path style="fill:#a9dfef; stroke:none;" d="M349 146L350 147L349 146z"/>
<path style="fill:#2a8fac; stroke:none;" d="M350 146L351 147L350 146z"/>
<path style="fill:#a9dfef; stroke:none;" d="M102 147L103 148L102 147z"/>
<path style="fill:#abb5b8; stroke:none;" d="M120 147L121 148L120 147z"/>
<path style="fill:#a9dfef; stroke:none;" d="M332 147L333 148L332 147z"/>
<path style="fill:#2a8fac; stroke:none;" d="M351.333 147.667L351.667 148.333L351.333 147.667z"/>
<path style="fill:#a9dfef; stroke:none;" d="M119 148L120 149L119 148z"/>
<path style="fill:#2a8fac; stroke:none;" d="M123 148L124 149L123 148M126 148L127 149L126 148z"/>
<path style="fill:#a9dfef; stroke:none;" d="M350 148L351 149L350 148z"/>
<path style="fill:#abb5b8; stroke:none;" d="M101 149L102 150L101 149M119 149L120 150L119 149z"/>
<path style="fill:#2a8fac; stroke:none;" d="M332 149L333 150L332 149z"/>
<path style="fill:#a9dfef; stroke:none;" d="M333 149L334 150L333 149M101 150L102 151L101 150M118 150L119 151L118 150M334 150L335 151L334 150M351 150L352 151L351 150z"/>
<path style="fill:#abb5b8; stroke:none;" d="M100 151L101 152L100 151z"/>
<path style="fill:#2a8fac; stroke:none;" d="M333 151L334 152L333 151z"/>
<path style="fill:#abb5b8; stroke:none;" d="M334 151L335 152L334 151z"/>
<path style="fill:#a9dfef; stroke:none;" d="M100 152L101 153L100 152M117 152L118 153L117 152z"/>
<path style="fill:#2a8fac; stroke:none;" d="M118 152L118 154L120 154L118 152z"/>
<path style="fill:#a9dfef; stroke:none;" d="M335 152L336 153L335 152M352.333 152.667L352.667 153.333L352.333 152.667z"/>
<path style="fill:#2a8fac; stroke:none;" d="M353 152L354 153L353 152M334 153L335 156L336 156L334 153z"/>
<path style="fill:#abb5b8; stroke:none;" d="M335 153L336 154L335 153z"/>
<path style="fill:#a9dfef; stroke:none;" d="M99.3333 154.667L99.6667 155.333L99.3333 154.667M116 154L117 155L116 154z"/>
<path style="fill:#2a8fac; stroke:none;" d="M117.333 154.667L117.667 155.333L117.333 154.667z"/>
<path style="fill:#a9dfef; stroke:none;" d="M336 154L337 155L336 154z"/>
<path style="fill:#abb5b8; stroke:none;" d="M353 154L354 155L353 154z"/>
<path style="fill:#2a8fac; stroke:none;" d="M354.333 154.667L354.667 155.333L354.333 154.667z"/>
<path style="fill:#abb5b8; stroke:none;" d="M336 155L337 156L336 155z"/>
<path style="fill:#a9dfef; stroke:none;" d="M353 155L354 156L353 155M98.3333 156.667L98.6667 157.333L98.3333 156.667M115 156L116 157L115 156z"/>
<path style="fill:#2a8fac; stroke:none;" d="M116.333 156.667L116.667 157.333L116.333 156.667z"/>
<path style="fill:#a9dfef; stroke:none;" d="M337.333 156.667L337.667 157.333L337.333 156.667z"/>
<path style="fill:#2a8fac; stroke:none;" d="M355 156C356.894 177.693 365.059 195.441 360.335 218C348.019 276.806 293.261 318.366 234 320.961C221.962 321.488 209.777 320.74 198 318.116C190.843 316.521 181.232 311.747 174 312.422C165.568 313.209 155.918 318.59 148 321.576C131.408 327.834 114.796 334.318 98 340C107.602 358.809 124.478 378.709 138 395C117.221 399.947 91.7895 395.799 71 393L71 394C96.0984 399.737 123.324 397 149 397L282 397C313.406 397 351.595 403.061 381 391L381 390C332.006 403.368 276.497 395 226 395L226 394L233 394L233 393L224 393L224 392L241 387L241 386L230 385L230 384C240.027 383.972 255.084 380.109 256 368C268.449 367.853 280.594 352.552 290.17 345.355C292.636 343.501 301.691 339.591 299 336L304 332L304 334L332.749 311.724L343 302L346 304C350.46 298.402 363.212 283.054 370 283C380.6 272.438 395.363 267.987 401 253L402 253L402 262L403 262L408 251L409 251L409 256L410 256L410 248L411 248L411 256L412 256L412 250L413 250L413 256L414 256L413.397 224L396.424 204L355 156M336 157L337 158L336 157z"/>
<path style="fill:#abb5b8; stroke:none;" d="M354 157L355 158L354 157z"/>
<path style="fill:#a9dfef; stroke:none;" d="M114 158L115 159L114 158z"/>
<path style="fill:#2a8fac; stroke:none;" d="M115 158L114 163L115 158M117 158L118 159L117 158z"/>
<path style="fill:#a9dfef; stroke:none;" d="M354 158L355 159L354 158M97 159L98 160L97 159z"/>
<path style="fill:#39b7de; stroke:none;" d="M114 159L115 160L114 159z"/>
<path style="fill:#2a8fac; stroke:none;" d="M337 159L338 160L337 159z"/>
<path style="fill:#a9dfef; stroke:none;" d="M338 159L339 160L338 159M113 160L114 161L113 160z"/>
<path style="fill:#abb5b8; stroke:none;" d="M355 160L356 161L355 160M113 161L114 162L113 161z"/>
<path style="fill:#a9dfef; stroke:none;" d="M339 161L340 162L339 161M355 161L356 162L355 161M96.3333 162.667L96.6667 163.333L96.3333 162.667z"/>
<path style="fill:#2a8fac; stroke:none;" d="M338 162L339 163L338 162z"/>
<path style="fill:#abb5b8; stroke:none;" d="M339 162L340 163L339 162z"/>
<path style="fill:#a9dfef; stroke:none;" d="M112 163L113 164L112 163z"/>
<path style="fill:#2a8fac; stroke:none;" d="M113.333 163.667L113.667 164.333L113.333 163.667z"/>
<path style="fill:#a9dfef; stroke:none;" d="M356.333 163.667L356.667 164.333L356.333 163.667z"/>
<path style="fill:#2a8fac; stroke:none;" d="M339 164L340 165L339 164z"/>
<path style="fill:#a9dfef; stroke:none;" d="M340 164L341 165L340 164M95.3333 165.667L95.6667 166.333L95.3333 165.667M111 165L112 166L111 165z"/>
<path style="fill:#2a8fac; stroke:none;" d="M112 165L112 168L113 168L112 165z"/>
<path style="fill:#abb5b8; stroke:none;" d="M111 166L112 167L111 166z"/>
<path style="fill:#2a8fac; stroke:none;" d="M340.333 166.667L340.667 167.333L340.333 166.667z"/>
<path style="fill:#a9dfef; stroke:none;" d="M341.333 166.667L341.667 167.333L341.333 166.667z"/>
<path style="fill:#abb5b8; stroke:none;" d="M357 166L358 167L357 166z"/>
<path style="fill:#a9dfef; stroke:none;" d="M357 167L358 168L357 167z"/>
<path style="fill:#abb5b8; stroke:none;" d="M94 168L95 169L94 168z"/>
<path style="fill:#a9dfef; stroke:none;" d="M110.333 168.667L110.667 169.333L110.333 168.667z"/>
<path style="fill:#2a8fac; stroke:none;" d="M111 168L111 171L112 171L111 168z"/>
<path style="fill:#a9dfef; stroke:none;" d="M94.3333 169.667L94.6667 170.333L94.3333 169.667M342.333 169.667L342.667 170.333L342.333 169.667z"/>
<path style="fill:#abb5b8; stroke:none;" d="M358 170L359 171L358 170z"/>
<path style="fill:#2a8fac; stroke:none;" d="M110 171L109 180L110 180L110 171z"/>
<path style="fill:#a9dfef; stroke:none;" d="M358 171L359 172L358 171M109 172L110 173L109 172M93.3333 173.667L93.6667 174.333L93.3333 173.667z"/>
<path style="fill:#abb5b8; stroke:none;" d="M109 173L110 174L109 173z"/>
<path style="fill:#2a8fac; stroke:none;" d="M342.333 173.667L342.667 174.333L342.333 173.667z"/>
<path style="fill:#a9dfef; stroke:none;" d="M343 173L344 174L343 173z"/>
<path style="fill:#39b7de; stroke:none;" d="M109 174L110 175L109 174z"/>
<path style="fill:#abb5b8; stroke:none;" d="M343 174L344 175L343 174M359 174L360 175L359 174z"/>
<path style="fill:#a9dfef; stroke:none;" d="M108 175L108 178L109 178L108 175M359 175L360 176L359 175M344 176L344 179L345 179L344 176z"/>
<path style="fill:#abb5b8; stroke:none;" d="M92 177L93 178L92 177z"/>
<path style="fill:#a9dfef; stroke:none;" d="M92.3333 178.667L92.6667 179.333L92.3333 178.667z"/>
<path style="fill:#39b7de; stroke:none;" d="M360 178L361 179L360 178z"/>
<path style="fill:#abb5b8; stroke:none;" d="M344 179L345 180L344 179M360 179L361 180L360 179z"/>
<path style="fill:#2a8fac; stroke:none;" d="M108 180L107 208L108 208L108 180z"/>
<path style="fill:#a9dfef; stroke:none;" d="M360 180L360 183L361 183L360 180M107.333 181.667L107.667 182.333L107.333 181.667M345 182L345 186L346 186L345 182z"/>
<path style="fill:#abb5b8; stroke:none;" d="M107 183L108 184L107 183z"/>
<path style="fill:#a9dfef; stroke:none;" d="M91 184L91 189L92 189L91 184z"/>
<path style="fill:#39b7de; stroke:none;" d="M107 184L107 187L108 187L107 184M361.333 184.667L361.667 185.333L361.333 184.667z"/>
<path style="fill:#abb5b8; stroke:none;" d="M361.333 186.667L361.667 187.333L361.333 186.667z"/>
<path style="fill:#a9dfef; stroke:none;" d="M106 187L106 195L107 195L106 187M361 188L361 192L362 192L361 188M346 191L346 204L347 204L346 191z"/>
<path style="fill:#abb5b8; stroke:none;" d="M90 193L90 204L91 204L90 193M106 195L106 202L107 202L106 195z"/>
<path style="fill:#a9dfef; stroke:none;" d="M106 202L106 209L107 209L106 202M361 204L361 208L362 208L361 204z"/>
<path style="fill:#2a8fac; stroke:none;" d="M90 208L91 209L90 208z"/>
<path style="fill:#a9dfef; stroke:none;" d="M91 208L91 212L92 212L91 208z"/>
<path style="fill:#2a8fac; stroke:none;" d="M108 208L108 214L109 214L108 208z"/>
<path style="fill:#abb5b8; stroke:none;" d="M361.333 208.667L361.667 209.333L361.333 208.667z"/>
<path style="fill:#a9dfef; stroke:none;" d="M345 210L345 214L346 214L345 210z"/>
<path style="fill:#39b7de; stroke:none;" d="M361 210L362 211L361 210z"/>
<path style="fill:#abb5b8; stroke:none;" d="M107.333 211.667L107.667 212.333L107.333 211.667z"/>
<path style="fill:#a9dfef; stroke:none;" d="M107.333 213.667L107.667 214.333L107.333 213.667M360 213L360 216L361 216L360 213M92 215L92 218L93 218L92 215z"/>
<path style="fill:#abb5b8; stroke:none;" d="M344 216L345 217L344 216z"/>
<path style="fill:#39b7de; stroke:none;" d="M360.333 216.667L360.667 217.333L360.333 216.667z"/>
<path style="fill:#a9dfef; stroke:none;" d="M344.333 217.667L344.667 218.333L344.333 217.667z"/>
<path style="fill:#abb5b8; stroke:none;" d="M92 218L93 219L92 218z"/>
<path style="fill:#a9dfef; stroke:none;" d="M108.333 218.667L108.667 219.333L108.333 218.667z"/>
<path style="fill:#2a8fac; stroke:none;" d="M109 218L109 221L110 221L109 218z"/>
<path style="fill:#a9dfef; stroke:none;" d="M359.333 219.667L359.667 220.333L359.333 219.667M93.3333 220.667L93.6667 221.333L93.3333 220.667z"/>
<path style="fill:#2a8fac; stroke:none;" d="M110 221L110 224L111 224L110 221z"/>
<path style="fill:#a9dfef; stroke:none;" d="M343.333 221.667L343.667 222.333L343.333 221.667z"/>
<path style="fill:#39b7de; stroke:none;" d="M359 221L360 222L359 221z"/>
<path style="fill:#abb5b8; stroke:none;" d="M93 222L94 223L93 222z"/>
<path style="fill:#a9dfef; stroke:none;" d="M109.333 222.667L109.667 223.333L109.333 222.667z"/>
<path style="fill:#abb5b8; stroke:none;" d="M342 224L343 225L342 224z"/>
<path style="fill:#a9dfef; stroke:none;" d="M358 224L359 225L358 224M94 225L95 226L94 225z"/>
<path style="fill:#abb5b8; stroke:none;" d="M110 225L111 226L110 225z"/>
<path style="fill:#2a8fac; stroke:none;" d="M111.333 225.667L111.667 226.333L111.333 225.667z"/>
<path style="fill:#a9dfef; stroke:none;" d="M342 225L343 226L342 225z"/>
<path style="fill:#39b7de; stroke:none;" d="M358 225L359 226L358 225z"/>
<path style="fill:#abb5b8; stroke:none;" d="M94 226L95 227L94 226z"/>
<path style="fill:#a9dfef; stroke:none;" d="M110 226L111 227L110 226z"/>
<path style="fill:#abb5b8; stroke:none;" d="M111 228L112 229L111 228z"/>
<path style="fill:#2a8fac; stroke:none;" d="M112.333 228.667L112.667 229.333L112.333 228.667M340 228L341 229L340 228z"/>
<path style="fill:#a9dfef; stroke:none;" d="M341 228L342 229L341 228M357 228L358 229L357 228M95 229L96 230L95 229M111 229L112 230L111 229z"/>
<path style="fill:#39b7de; stroke:none;" d="M357 229L358 230L357 229z"/>
<path style="fill:#2a8fac; stroke:none;" d="M113 230L114 231L113 230z"/>
<path style="fill:#abb5b8; stroke:none;" d="M340 230L341 231L340 230z"/>
<path style="fill:#a9dfef; stroke:none;" d="M340 231L341 232L340 231M356 231L357 232L356 231M96 232L97 233L96 232M112 232L113 233L112 232z"/>
<path style="fill:#2a8fac; stroke:none;" d="M113.667 232.333L114.333 232.667L113.667 232.333z"/>
<path style="fill:#abb5b8; stroke:none;" d="M356 232L357 233L356 232M96 233L97 234L96 233z"/>
<path style="fill:#2a8fac; stroke:none;" d="M338 233L339 234L338 233z"/>
<path style="fill:#a9dfef; stroke:none;" d="M339.333 233.667L339.667 234.333L339.333 233.667M113 234L114 235L113 234z"/>
<path style="fill:#2a8fac; stroke:none;" d="M114 234L115 235L114 234z"/>
<path style="fill:#a9dfef; stroke:none;" d="M355 234L356 235L355 234z"/>
<path style="fill:#2a8fac; stroke:none;" d="M96 235L97 236L96 235z"/>
<path style="fill:#a9dfef; stroke:none;" d="M97 235L98 236L97 235z"/>
<path style="fill:#abb5b8; stroke:none;" d="M338 235L339 236L338 235M355 235L356 236L355 235M97 236L98 237L97 236M114 236L115 237L114 236z"/>
<path style="fill:#2a8fac; stroke:none;" d="M115 236L116 240L117 240L115 236z"/>
<path style="fill:#a9dfef; stroke:none;" d="M338 236L339 237L338 236M114 237L115 238L114 237M354 237L355 238L354 237M98 238L99 239L98 238z"/>
<path style="fill:#abb5b8; stroke:none;" d="M115 238L116 239L115 238z"/>
<path style="fill:#a9dfef; stroke:none;" d="M337 238L338 239L337 238z"/>
<path style="fill:#39b7de; stroke:none;" d="M354 238L355 239L354 238z"/>
<path style="fill:#abb5b8; stroke:none;" d="M98 239L99 240L98 239z"/>
<path style="fill:#a9dfef; stroke:none;" d="M115 239L116 240L115 239z"/>
<path style="fill:#2a8fac; stroke:none;" d="M98 240L99 241L98 240z"/>
<path style="fill:#a9dfef; stroke:none;" d="M99.3333 240.667L99.6667 241.333L99.3333 240.667z"/>
<path style="fill:#2a8fac; stroke:none;" d="M117.333 240.667L117.667 241.333L117.333 240.667z"/>
<path style="fill:#a9dfef; stroke:none;" d="M336 240L337 241L336 240z"/>
<path style="fill:#abb5b8; stroke:none;" d="M353 240L354 241L353 240z"/>
<path style="fill:#a9dfef; stroke:none;" d="M116 241L117 242L116 241z"/>
<path style="fill:#2a8fac; stroke:none;" d="M118 242L119 246L120 246L118 242z"/>
<path style="fill:#a9dfef; stroke:none;" d="M335 242L336 243L335 242M352 242L353 243L352 242z"/>
<path style="fill:#2a8fac; stroke:none;" d="M99 243L100 244L99 243z"/>
<path style="fill:#a9dfef; stroke:none;" d="M100 243L101 244L100 243M117 243L118 244L117 243z"/>
<path style="fill:#39b7de; stroke:none;" d="M352 243L353 244L352 243z"/>
<path style="fill:#abb5b8; stroke:none;" d="M118 244L119 245L118 244z"/>
<path style="fill:#a9dfef; stroke:none;" d="M334 244L335 245L334 244M351 244L352 245L351 244z"/>
<path style="fill:#2a8fac; stroke:none;" d="M100.333 245.667L100.667 246.333L100.333 245.667z"/>
<path style="fill:#a9dfef; stroke:none;" d="M101 245L102 246L101 245M118 245L119 246L118 245z"/>
<path style="fill:#abb5b8; stroke:none;" d="M351 245L352 246L351 245M119 246L120 247L119 246z"/>
<path style="fill:#2a8fac; stroke:none;" d="M332 246L333 247L332 246z"/>
<path style="fill:#a9dfef; stroke:none;" d="M333 246L334 247L333 246M350 246L351 247L350 246z"/>
<path style="fill:#2a8fac; stroke:none;" d="M101 247L102 248L101 247z"/>
<path style="fill:#a9dfef; stroke:none;" d="M102 247L103 248L102 247z"/>
<path style="fill:#abb5b8; stroke:none;" d="M332 247L333 248L332 247M350 247L351 248L350 247M102 248L103 249L102 248z"/>
<path style="fill:#a9dfef; stroke:none;" d="M120 248L121 249L120 248z"/>
<path style="fill:#2a8fac; stroke:none;" d="M121 248L122 249L121 248z"/>
<path style="fill:#39b7de; stroke:none;" d="M408 248L409 249L408 248M410 248L410 256L409 256L409 251L408 251L403 262L402 262L402 253L401 253C396.67 261.44 390.391 267.783 382.701 273.557C378.517 276.699 372.998 278.637 370 283C363.704 282.167 349.109 298.269 346 304L343 302C333.441 314.182 316.644 325.057 304 334L304 332L299 336C300.489 339.808 291.92 343.324 289.285 345.355C280.277 352.3 267.746 367.619 256 368C254.243 379.35 239.893 383.918 230 384L230 385L241 386L241 387L224 392L224 393L233 393L233 394L226 394L226 395C263.024 395 299.943 396 337 396C362.122 396 387.103 394.276 403.215 372C414.732 356.076 414 338.642 414 320C414 296.623 414.001 273.304 413 250L412 250L412 256L411 256L410 248z"/>
<path style="fill:#a9dfef; stroke:none;" d="M103 249L104 250L103 249z"/>
<path style="fill:#2a8fac; stroke:none;" d="M122 249L124 252L122 249z"/>
<path style="fill:#a9dfef; stroke:none;" d="M331 249L332 250L331 249z"/>
<path style="fill:#abb5b8; stroke:none;" d="M349 249L350 250L349 249z"/>
<path style="fill:#a9dfef; stroke:none;" d="M121 250L122 251L121 250M104 251L105 252L104 251z"/>
<path style="fill:#abb5b8; stroke:none;" d="M122 251L123 252L122 251z"/>
<path style="fill:#a9dfef; stroke:none;" d="M330 251L331 252L330 251z"/>
<path style="fill:#abb5b8; stroke:none;" d="M348 251L349 252L348 251z"/>
<path style="fill:#2a8fac; stroke:none;" d="M124.333 252.667L124.667 253.333L124.333 252.667z"/>
<path style="fill:#abb5b8; stroke:none;" d="M329 252L330 253L329 252z"/>
<path style="fill:#a9dfef; stroke:none;" d="M347 252L348 253L347 252z"/>
<path style="fill:#2a8fac; stroke:none;" d="M104 253L105 254L104 253z"/>
<path style="fill:#a9dfef; stroke:none;" d="M105 253L106 254L105 253M123 253L124 254L123 253z"/>
<path style="fill:#abb5b8; stroke:none;" d="M347 253L348 254L347 253z"/>
<path style="fill:#a9dfef; stroke:none;" d="M124 254L125 255L124 254M328 254L329 255L328 254M346 254L347 255L346 254z"/>
<path style="fill:#2a8fac; stroke:none;" d="M105 255L106 256L105 255z"/>
<path style="fill:#abb5b8; stroke:none;" d="M106 255L107 256L106 255M327 255L328 256L327 255z"/>
<path style="fill:#a9dfef; stroke:none;" d="M107 256L108 257L107 256M125 256L126 257L125 256z"/>
<path style="fill:#abb5b8; stroke:none;" d="M345 256L346 257L345 256z"/>
<path style="fill:#2a8fac; stroke:none;" d="M106 257L108 259L106 257z"/>
<path style="fill:#abb5b8; stroke:none;" d="M107 257L108 258L107 257z"/>
<path style="fill:#a9dfef; stroke:none;" d="M126 257L127 258L126 257z"/>
<path style="fill:#2a8fac; stroke:none;" d="M127 257L130 260L127 257z"/>
<path style="fill:#a9dfef; stroke:none;" d="M326 257L327 258L326 257M108 258L109 259L108 258z"/>
<path style="fill:#abb5b8; stroke:none;" d="M127 258L128 259L127 258z"/>
<path style="fill:#a9dfef; stroke:none;" d="M325 258L326 259L325 258z"/>
<path style="fill:#abb5b8; stroke:none;" d="M344 258L345 259L344 258M128 259L129 260L128 259z"/>
<path style="fill:#a9dfef; stroke:none;" d="M324 259L325 260L324 259M343 259L344 260L343 259z"/>
<path style="fill:#abb5b8; stroke:none;" d="M109 260L110 261L109 260M323 260L324 261L323 260z"/>
<path style="fill:#2a8fac; stroke:none;" d="M109.333 261.667L109.667 262.333L109.333 261.667z"/>
<path style="fill:#a9dfef; stroke:none;" d="M110 261L111 262L110 261M129 261L130 262L129 261z"/>
<path style="fill:#abb5b8; stroke:none;" d="M342 261L343 262L342 261z"/>
<path style="fill:#a9dfef; stroke:none;" d="M130 262L131 263L130 262M322 262L323 263L322 262M341 262L342 263L341 262z"/>
<path style="fill:#2a8fac; stroke:none;" d="M110 263L111 264L110 263z"/>
<path style="fill:#abb5b8; stroke:none;" d="M111 263L112 264L111 263z"/>
<path style="fill:#a9dfef; stroke:none;" d="M321 263L322 264L321 263M112 264L113 265L112 264M131 264L132 265L131 264z"/>
<path style="fill:#2a8fac; stroke:none;" d="M132 264L133 265L132 264z"/>
<path style="fill:#a9dfef; stroke:none;" d="M320 264L321 265L320 264z"/>
<path style="fill:#39b7de; stroke:none;" d="M340 264L341 265L340 264z"/>
<path style="fill:#a9dfef; stroke:none;" d="M113 265L114 266L113 265M319 265L320 266L319 265z"/>
<path style="fill:#abb5b8; stroke:none;" d="M339 265L340 266L339 265z"/>
<path style="fill:#2a8fac; stroke:none;" d="M112 266L113 267L112 266z"/>
<path style="fill:#a9dfef; stroke:none;" d="M318 266L319 267L318 266M338 266L339 267L338 266z"/>
<path style="fill:#2a8fac; stroke:none;" d="M113 267L113 270L114 270L115 270L113 267z"/>
<path style="fill:#abb5b8; stroke:none;" d="M114 267L115 268L114 267z"/>
<path style="fill:#a9dfef; stroke:none;" d="M317 267L318 268L317 267M115.333 268.667L115.667 269.333L115.333 268.667M316 268L317 269L316 268z"/>
<path style="fill:#abb5b8; stroke:none;" d="M337 268L338 269L337 268M315 269L316 270L315 269M336 269L337 270L336 269z"/>
<path style="fill:#a9dfef; stroke:none;" d="M131 270L132 271L131 270z"/>
<path style="fill:#2a8fac; stroke:none;" d="M132.333 270.667L132.667 271.333L132.333 270.667z"/>
<path style="fill:#abb5b8; stroke:none;" d="M314 270L315 271L314 270z"/>
<path style="fill:#a9dfef; stroke:none;" d="M335 270L336 271L335 270z"/>
<path style="fill:#2a8fac; stroke:none;" d="M113 271L114 272L113 271z"/>
<path style="fill:#a9dfef; stroke:none;" d="M114 271L115 272L114 271z"/>
<path style="fill:#abb5b8; stroke:none;" d="M131 271L132 272L131 271M313 271L314 272L313 271z"/>
<path style="fill:#a9dfef; stroke:none;" d="M312 272L313 273L312 272M113 273L114 274L113 273M130 273L131 274L130 273z"/>
<path style="fill:#2a8fac; stroke:none;" d="M131.333 273.667L131.667 274.333L131.333 273.667z"/>
<path style="fill:#a9dfef; stroke:none;" d="M311 273L312 274L311 273z"/>
<path style="fill:#abb5b8; stroke:none;" d="M333 273L334 274L333 273z"/>
<path style="fill:#a9dfef; stroke:none;" d="M310 274L311 275L310 274z"/>
<path style="fill:#abb5b8; stroke:none;" d="M332 274L333 275L332 274M112 275L113 276L112 275z"/>
<path style="fill:#a9dfef; stroke:none;" d="M129 275L130 276L129 275z"/>
<path style="fill:#2a8fac; stroke:none;" d="M130.333 275.667L130.667 276.333L130.333 275.667z"/>
<path style="fill:#a9dfef; stroke:none;" d="M309 275L310 276L309 275z"/>
<path style="fill:#abb5b8; stroke:none;" d="M331 275L332 276L331 275z"/>
<path style="fill:#a9dfef; stroke:none;" d="M112 276L113 277L112 276M330 276L331 277L330 276z"/>
<path style="fill:#abb5b8; stroke:none;" d="M111 277L112 278L111 277z"/>
<path style="fill:#a9dfef; stroke:none;" d="M128 277L129 278L128 277z"/>
<path style="fill:#2a8fac; stroke:none;" d="M129 277L128 282L129 282L129 277z"/>
<path style="fill:#abb5b8; stroke:none;" d="M306 277L307 278L306 277z"/>
<path style="fill:#a9dfef; stroke:none;" d="M329 277L330 278L329 277M111 278L112 279L111 278z"/>
<path style="fill:#abb5b8; stroke:none;" d="M128 278L129 279L128 278z"/>
<path style="fill:#a9dfef; stroke:none;" d="M305 278L306 279L305 278M328 278L329 279L328 278M304 279L305 280L304 279M327 279L328 280L327 279z"/>
<path style="fill:#2a8fac; stroke:none;" d="M109 280L110 281L109 280z"/>
<path style="fill:#a9dfef; stroke:none;" d="M110 280L111 281L110 280z"/>
<path style="fill:#abb5b8; stroke:none;" d="M127 280L128 281L127 280M302 280L303 281L302 280z"/>
<path style="fill:#a9dfef; stroke:none;" d="M303 280L304 281L303 280M326 280L327 281L326 280M301 281L302 282L301 281M325 281L326 282L325 281M109 282L110 283L109 282M126 282L127 283L126 282z"/>
<path style="fill:#2a8fac; stroke:none;" d="M127.333 282.667L127.667 283.333L127.333 282.667z"/>
<path style="fill:#a9dfef; stroke:none;" d="M300 282L301 283L300 282M324 282L325 283L324 282M298 283L299 284L298 283M323 283L324 284L323 283M108 284L109 285L108 284M125 284L126 285L125 284z"/>
<path style="fill:#2a8fac; stroke:none;" d="M126.333 284.667L126.667 285.333L126.333 284.667z"/>
<path style="fill:#a9dfef; stroke:none;" d="M297 284L298 285L297 284M322 284L323 285L322 284M295 285L296 286L295 285z"/>
<path style="fill:#abb5b8; stroke:none;" d="M321 285L322 286L321 285M107 286L108 287L107 286z"/>
<path style="fill:#a9dfef; stroke:none;" d="M124 286L125 287L124 286z"/>
<path style="fill:#2a8fac; stroke:none;" d="M125 286L125 288L127 288L125 286z"/>
<path style="fill:#abb5b8; stroke:none;" d="M293 286L294 287L293 286z"/>
<path style="fill:#a9dfef; stroke:none;" d="M294 286L295 287L294 286z"/>
<path style="fill:#abb5b8; stroke:none;" d="M320 286L321 287L320 286z"/>
<path style="fill:#a9dfef; stroke:none;" d="M107 287L108 288L107 287M292 287L293 288L292 287z"/>
<path style="fill:#abb5b8; stroke:none;" d="M319 287L320 288L319 287z"/>
<path style="fill:#a9dfef; stroke:none;" d="M123 288L124 289L123 288z"/>
<path style="fill:#2a8fac; stroke:none;" d="M124 288L123 292L124 292L124 288z"/>
<path style="fill:#a9dfef; stroke:none;" d="M290 288L291 289L290 288M317 288L318 289L317 288M106 289L107 290L106 289z"/>
<path style="fill:#abb5b8; stroke:none;" d="M123 289L124 290L123 289z"/>
<path style="fill:#a9dfef; stroke:none;" d="M288.667 289.333L289.333 289.667L288.667 289.333M316 289L317 290L316 289z"/>
<path style="fill:#2a8fac; stroke:none;" d="M125 290L126 291L125 290z"/>
<path style="fill:#abb5b8; stroke:none;" d="M286 290L287 291L286 290z"/>
<path style="fill:#a9dfef; stroke:none;" d="M287 290L288 291L287 290z"/>
<path style="fill:#abb5b8; stroke:none;" d="M315 290L316 291L315 290z"/>
<path style="fill:#a9dfef; stroke:none;" d="M105 291L106 292L105 291M122 291L123 292L122 291z"/>
<path style="fill:#abb5b8; stroke:none;" d="M284 291L285 292L284 291z"/>
<path style="fill:#a9dfef; stroke:none;" d="M285 291L286 292L285 291z"/>
<path style="fill:#39b7de; stroke:none;" d="M314 291L315 292L314 291z"/>
<path style="fill:#abb5b8; stroke:none;" d="M282 292L283 293L282 292z"/>
<path style="fill:#a9dfef; stroke:none;" d="M283 292L284 293L283 292M312 292L313 293L312 292M104.333 293.667L104.667 294.333L104.333 293.667M121 293L122 294L121 293z"/>
<path style="fill:#2a8fac; stroke:none;" d="M122 293L120 299C122.456 297.234 123.118 295.881 122 293M124 293L125 294L124 293z"/>
<path style="fill:#abb5b8; stroke:none;" d="M280 293L281 294L280 293z"/>
<path style="fill:#a9dfef; stroke:none;" d="M281 293L282 294L281 293z"/>
<path style="fill:#abb5b8; stroke:none;" d="M311 293L312 294L311 293z"/>
<path style="fill:#39b7de; stroke:none;" d="M121 294L122 295L121 294z"/>
<path style="fill:#a9dfef; stroke:none;" d="M278 294L279 295L278 294M309 294L310 295L309 294z"/>
<path style="fill:#39b7de; stroke:none;" d="M310 294L311 295L310 294z"/>
<path style="fill:#abb5b8; stroke:none;" d="M103 295L104 296L103 295z"/>
<path style="fill:#a9dfef; stroke:none;" d="M120 295L121 296L120 295M174.667 295.333L175.333 295.667L174.667 295.333M276 295L277 296L276 295M308 295L309 296L308 295z"/>
<path style="fill:#2a8fac; stroke:none;" d="M102 296L103 297L102 296z"/>
<path style="fill:#a9dfef; stroke:none;" d="M103 296L104 297L103 296z"/>
<path style="fill:#39b7de; stroke:none;" d="M120.667 296.333L121.333 296.667L120.667 296.333z"/>
<path style="fill:#abb5b8; stroke:none;" d="M170 296L171 297L170 296z"/>
<path style="fill:#a9dfef; stroke:none;" d="M171 296L172 297L171 296M178 296L179 297L178 296z"/>
<path style="fill:#abb5b8; stroke:none;" d="M179 296L180 297L179 296z"/>
<path style="fill:#a9dfef; stroke:none;" d="M273.667 296.333L274.333 296.667L273.667 296.333M306 296L307 297L306 296z"/>
<path style="fill:#39b7de; stroke:none;" d="M307 296L308 297L307 296z"/>
<path style="fill:#abb5b8; stroke:none;" d="M102 297L103 298L102 297z"/>
<path style="fill:#a9dfef; stroke:none;" d="M119 297L120 298L119 297M168.667 297.333L169.333 297.667L168.667 297.333M181 297L182 298L181 297M270.667 297.333L271.333 297.667L270.667 297.333M305 297L306 298L305 297M102 298L103 299L102 298z"/>
<path style="fill:#abb5b8; stroke:none;" d="M119 298L120 299L119 298z"/>
<path style="fill:#a9dfef; stroke:none;" d="M165.667 298.333L166.333 298.667L165.667 298.333M184 298L185 299L184 298z"/>
<path style="fill:#abb5b8; stroke:none;" d="M185 298L186 299L185 298M267 298L268 299L267 298z"/>
<path style="fill:#a9dfef; stroke:none;" d="M268 298L269 299L268 298z"/>
<path style="fill:#39b7de; stroke:none;" d="M304 298L305 299L304 298z"/>
<path style="fill:#a9dfef; stroke:none;" d="M118.333 299.667L118.667 300.333L118.333 299.667z"/>
<path style="fill:#abb5b8; stroke:none;" d="M162 299L163 300L162 299z"/>
<path style="fill:#a9dfef; stroke:none;" d="M163 299L164 300L163 299M186.667 299.333L187.333 299.667L186.667 299.333M264.667 299.333L265.333 299.667L264.667 299.333M302 299L303 300L302 299M101 300L102 301L101 300z"/>
<path style="fill:#2a8fac; stroke:none;" d="M119 300L118 304L119 304L119 300z"/>
<path style="fill:#a9dfef; stroke:none;" d="M160 300L161 301L160 300M190 300L191 301L190 300z"/>
<path style="fill:#abb5b8; stroke:none;" d="M191 300L192 301L191 300z"/>
<path style="fill:#a9dfef; stroke:none;" d="M261.667 300.333L262.333 300.667L261.667 300.333M300 300L301 301L300 300z"/>
<path style="fill:#39b7de; stroke:none;" d="M118 301L119 302L118 301z"/>
<path style="fill:#a9dfef; stroke:none;" d="M157.667 301.333L158.333 301.667L157.667 301.333M193.667 301.333L194.333 301.667L193.667 301.333z"/>
<path style="fill:#abb5b8; stroke:none;" d="M195 301L196 302L195 301z"/>
<path style="fill:#2a8fac; stroke:none;" d="M199 301L200 302L199 301z"/>
<path style="fill:#a9dfef; stroke:none;" d="M258.667 301.333L259.333 301.667L258.667 301.333M298 301L299 302L298 301z"/>
<path style="fill:#abb5b8; stroke:none;" d="M299 301L300 302L299 301z"/>
<path style="fill:#a9dfef; stroke:none;" d="M100 302L101 303L100 302M117 302L118 303L117 302M154.667 302.333L155.333 302.667L154.667 302.333M198.667 302.333L199.333 302.667L198.667 302.333z"/>
<path style="fill:#abb5b8; stroke:none;" d="M200 302L201 303L200 302M252 302L253 303L252 302z"/>
<path style="fill:#a9dfef; stroke:none;" d="M253.667 302.333L254.333 302.667L253.667 302.333z"/>
<path style="fill:#abb5b8; stroke:none;" d="M297 302L298 303L297 302M151 303L152 304L151 303z"/>
<path style="fill:#a9dfef; stroke:none;" d="M152 303L153 304L152 303M202 303L202 304L206 304L202 303z"/>
<path style="fill:#abb5b8; stroke:none;" d="M246 303L247 304L246 303z"/>
<path style="fill:#a9dfef; stroke:none;" d="M247 303L247 304L250 304L247 303M295 303L296 304L295 303M99.3333 304.667L99.6667 305.333L99.3333 304.667M116 304L117 305L116 304z"/>
<path style="fill:#2a8fac; stroke:none;" d="M117.333 304.667L117.667 305.333L117.333 304.667z"/>
<path style="fill:#a9dfef; stroke:none;" d="M149 304L150 305L149 304M210 304L210 305L214 305L210 304z"/>
<path style="fill:#abb5b8; stroke:none;" d="M214 304L214 305L217 305L214 304M236.667 304.333L237.333 304.667L236.667 304.333z"/>
<path style="fill:#a9dfef; stroke:none;" d="M238 304L238 305L243 305L238 304M293 304L294 305L293 304M146.667 305.333L147.333 305.667L146.667 305.333M224 305L224 306L229 306L224 305M291 305L292 306L291 305z"/>
<path style="fill:#abb5b8; stroke:none;" d="M98 306L99 307L98 306z"/>
<path style="fill:#a9dfef; stroke:none;" d="M115 306L116 307L115 306z"/>
<path style="fill:#2a8fac; stroke:none;" d="M116 306L111 318L123 314L123 313L118 314L117 314L119 308L116 306z"/>
<path style="fill:#abb5b8; stroke:none;" d="M143 306L144 307L143 306z"/>
<path style="fill:#a9dfef; stroke:none;" d="M144 306L145 307L144 306M289 306L290 307L289 306M98 307L99 308L98 307z"/>
<path style="fill:#abb5b8; stroke:none;" d="M115 307L116 308L115 307z"/>
<path style="fill:#a9dfef; stroke:none;" d="M141 307L142 308L141 307z"/>
<path style="fill:#abb5b8; stroke:none;" d="M287 307L288 308L287 307z"/>
<path style="fill:#a9dfef; stroke:none;" d="M114 308L115 309L114 308M138 308L139 309L138 308M284 308L285 309L284 308z"/>
<path style="fill:#abb5b8; stroke:none;" d="M285 308L286 309L285 308z"/>
<path style="fill:#a9dfef; stroke:none;" d="M97 309L98 310L97 309z"/>
<path style="fill:#abb5b8; stroke:none;" d="M114 309L115 310L114 309z"/>
<path style="fill:#39b7de; stroke:none;" d="M116 309L117 310L116 309z"/>
<path style="fill:#2a8fac; stroke:none;" d="M132 309L133 310L132 309z"/>
<path style="fill:#abb5b8; stroke:none;" d="M135 309L136 310L135 309z"/>
<path style="fill:#a9dfef; stroke:none;" d="M136 309L137 310L136 309M282 309L283 310L282 309z"/>
<path style="fill:#39b7de; stroke:none;" d="M283 309L284 310L283 309M114 310L115 311L114 310z"/>
<path style="fill:#2a8fac; stroke:none;" d="M130 310L131 311L130 310z"/>
<path style="fill:#abb5b8; stroke:none;" d="M132 310L133 311L132 310z"/>
<path style="fill:#a9dfef; stroke:none;" d="M133 310L134 311L133 310M279 310L280 311L279 310z"/>
<path style="fill:#abb5b8; stroke:none;" d="M280 310L281 311L280 310z"/>
<path style="fill:#a9dfef; stroke:none;" d="M96 311L97 312L96 311M113 311L114 312L113 311z"/>
<path style="fill:#2a8fac; stroke:none;" d="M127 311L128 312L127 311z"/>
<path style="fill:#a9dfef; stroke:none;" d="M130 311L131 312L130 311M174.667 311.333L175.333 311.667L174.667 311.333M277 311L278 312L277 311z"/>
<path style="fill:#39b7de; stroke:none;" d="M278 311L279 312L278 311M113 312L114 313L113 312z"/>
<path style="fill:#2a8fac; stroke:none;" d="M124.667 312.333L125.333 312.667L124.667 312.333z"/>
<path style="fill:#abb5b8; stroke:none;" d="M127 312L128 313L127 312z"/>
<path style="fill:#a9dfef; stroke:none;" d="M171 312L172 313L171 312z"/>
<path style="fill:#abb5b8; stroke:none;" d="M172 312L173 313L172 312M177 312L178 313L177 312z"/>
<path style="fill:#a9dfef; stroke:none;" d="M178 312L179 313L178 312M274 312L275 313L274 312z"/>
<path style="fill:#39b7de; stroke:none;" d="M275 312L276 313L275 312z"/>
<path style="fill:#a9dfef; stroke:none;" d="M95.3333 313.667L95.6667 314.333L95.3333 313.667M112 313L113 314L112 313z"/>
<path style="fill:#39b7de; stroke:none;" d="M115 313L116 314L115 313z"/>
<path style="fill:#abb5b8; stroke:none;" d="M124 313L125 314L124 313z"/>
<path style="fill:#a9dfef; stroke:none;" d="M125 313L126 314L125 313z"/>
<path style="fill:#abb5b8; stroke:none;" d="M169 313L170 314L169 313M180 313L181 314L180 313z"/>
<path style="fill:#a9dfef; stroke:none;" d="M181 313L182 314L181 313M271 313L272 314L271 313z"/>
<path style="fill:#39b7de; stroke:none;" d="M272 313L273 314L272 313z"/>
<path style="fill:#2a8fac; stroke:none;" d="M94 314L95 315L94 314z"/>
<path style="fill:#39b7de; stroke:none;" d="M112 314L113 315L112 314z"/>
<path style="fill:#abb5b8; stroke:none;" d="M121 314L122 315L121 314z"/>
<path style="fill:#a9dfef; stroke:none;" d="M122 314L123 315L122 314M166 314L167 315L166 314z"/>
<path style="fill:#39b7de; stroke:none;" d="M167 314L168 315L167 314M183 314L184 315L183 314z"/>
<path style="fill:#a9dfef; stroke:none;" d="M184.667 314.333L185.333 314.667L184.667 314.333M267.667 314.333L268.333 314.667L267.667 314.333z"/>
<path style="fill:#39b7de; stroke:none;" d="M269 314L270 315L269 314z"/>
<path style="fill:#abb5b8; stroke:none;" d="M94 315L95 316L94 315z"/>
<path style="fill:#a9dfef; stroke:none;" d="M111 315L112 316L111 315z"/>
<path style="fill:#39b7de; stroke:none;" d="M118 315L119 316L118 315z"/>
<path style="fill:#a9dfef; stroke:none;" d="M119 315L120 316L119 315M163 315L164 316L163 315z"/>
<path style="fill:#abb5b8; stroke:none;" d="M164 315L165 316L164 315z"/>
<path style="fill:#39b7de; stroke:none;" d="M186 315L187 316L186 315z"/>
<path style="fill:#abb5b8; stroke:none;" d="M187 315L188 316L187 315z"/>
<path style="fill:#a9dfef; stroke:none;" d="M188 315L189 316L188 315M264 315L265 316L264 315z"/>
<path style="fill:#abb5b8; stroke:none;" d="M265 315L266 316L265 315z"/>
<path style="fill:#a9dfef; stroke:none;" d="M94 316L95 317L94 316z"/>
<path style="fill:#abb5b8; stroke:none;" d="M111 316L112 317L111 316z"/>
<path style="fill:#39b7de; stroke:none;" d="M115 316L116 317L115 316z"/>
<path style="fill:#abb5b8; stroke:none;" d="M116 316L117 317L116 316z"/>
<path style="fill:#a9dfef; stroke:none;" d="M117 316L118 317L117 316M160.667 316.333L161.333 316.667L160.667 316.333z"/>
<path style="fill:#39b7de; stroke:none;" d="M190 316L191 317L190 316z"/>
<path style="fill:#abb5b8; stroke:none;" d="M191 316L192 317L191 316z"/>
<path style="fill:#a9dfef; stroke:none;" d="M192 316L193 317L192 316M260 316L261 317L260 316z"/>
<path style="fill:#abb5b8; stroke:none;" d="M261 316L262 317L261 316z"/>
<path style="fill:#a9dfef; stroke:none;" d="M110.333 317.667L110.667 318.333L110.333 317.667z"/>
<path style="fill:#39b7de; stroke:none;" d="M113 317L114 318L113 317z"/>
<path style="fill:#a9dfef; stroke:none;" d="M114 317L115 318L114 317z"/>
<path style="fill:#abb5b8; stroke:none;" d="M158 317L159 318L158 317z"/>
<path style="fill:#39b7de; stroke:none;" d="M159 317L160 318L159 317z"/>
<path style="fill:#abb5b8; stroke:none;" d="M195 317L196 318L195 317z"/>
<path style="fill:#a9dfef; stroke:none;" d="M196.667 317.333L197.333 317.667L196.667 317.333M255 317L256 318L255 317z"/>
<path style="fill:#abb5b8; stroke:none;" d="M256.667 317.333L257.333 317.667L256.667 317.333z"/>
<path style="fill:#a9dfef; stroke:none;" d="M93 318L94 319L93 318z"/>
<path style="fill:#abb5b8; stroke:none;" d="M111 318L112 319L111 318z"/>
<path style="fill:#a9dfef; stroke:none;" d="M155 318L156 319L155 318z"/>
<path style="fill:#39b7de; stroke:none;" d="M156 318L157 319L156 318M199 318L200 319L199 318z"/>
<path style="fill:#abb5b8; stroke:none;" d="M200 318L201 319L200 318z"/>
<path style="fill:#a9dfef; stroke:none;" d="M201.667 318.333L202.333 318.667L201.667 318.333M249 318L249 319L252 319L249 318z"/>
<path style="fill:#39b7de; stroke:none;" d="M252.667 318.333L253.333 318.667L252.667 318.333z"/>
<path style="fill:#a9dfef; stroke:none;" d="M152 319L153 320L152 319z"/>
<path style="fill:#abb5b8; stroke:none;" d="M153 319L154 320L153 319z"/>
<path style="fill:#39b7de; stroke:none;" d="M205 319L206 320L205 319z"/>
<path style="fill:#abb5b8; stroke:none;" d="M206.667 319.333L207.333 319.667L206.667 319.333z"/>
<path style="fill:#a9dfef; stroke:none;" d="M208.667 319.333L209.333 319.667L208.667 319.333M243.667 319.333L244.333 319.667L243.667 319.333z"/>
<path style="fill:#abb5b8; stroke:none;" d="M245.667 319.333L246.333 319.667L245.667 319.333z"/>
<path style="fill:#a9dfef; stroke:none;" d="M92.3333 320.667L92.6667 321.333L92.3333 320.667z"/>
<path style="fill:#abb5b8; stroke:none;" d="M150 320L151 321L150 320z"/>
<path style="fill:#39b7de; stroke:none;" d="M213 320L213 321L216 321L213 320z"/>
<path style="fill:#abb5b8; stroke:none;" d="M216.667 320.333L217.333 320.667L216.667 320.333z"/>
<path style="fill:#a9dfef; stroke:none;" d="M218 320L218 321L235 321L218 320z"/>
<path style="fill:#abb5b8; stroke:none;" d="M235.667 320.333L236.333 320.667L235.667 320.333z"/>
<path style="fill:#39b7de; stroke:none;" d="M237.667 320.333L238.333 320.667L237.667 320.333z"/>
<path style="fill:#a9dfef; stroke:none;" d="M147 321L148 322L147 321z"/>
<path style="fill:#39b7de; stroke:none;" d="M148 321L149 322L148 321z"/>
<path style="fill:#a9dfef; stroke:none;" d="M91.3333 322.667L91.6667 323.333L91.3333 322.667M144 322L145 323L144 322z"/>
<path style="fill:#abb5b8; stroke:none;" d="M145 322L146 323L145 322M142 323L143 324L142 323M90 324L91 325L90 324z"/>
<path style="fill:#a9dfef; stroke:none;" d="M139 324L140 325L139 324z"/>
<path style="fill:#39b7de; stroke:none;" d="M140 324L141 325L140 324z"/>
<path style="fill:#a9dfef; stroke:none;" d="M90 325L91 326L90 325M136 325L137 326L136 325z"/>
<path style="fill:#abb5b8; stroke:none;" d="M137 325L138 326L137 325z"/>
<path style="fill:#a9dfef; stroke:none;" d="M133 326L134 327L133 326z"/>
<path style="fill:#abb5b8; stroke:none;" d="M134 326L135 327L134 326z"/>
<path style="fill:#a9dfef; stroke:none;" d="M89 327L90 328L89 327z"/>
<path style="fill:#abb5b8; stroke:none;" d="M131 327L132 328L131 327z"/>
<path style="fill:#a9dfef; stroke:none;" d="M128 328L129 329L128 328z"/>
<path style="fill:#39b7de; stroke:none;" d="M129 328L130 329L129 328z"/>
<path style="fill:#abb5b8; stroke:none;" d="M88 329L89 330L88 329z"/>
<path style="fill:#a9dfef; stroke:none;" d="M125 329L126 330L125 329z"/>
<path style="fill:#abb5b8; stroke:none;" d="M126 329L127 330L126 329z"/>
<path style="fill:#a9dfef; stroke:none;" d="M88 330L89 331L88 330z"/>
<path style="fill:#abb5b8; stroke:none;" d="M123 330L124 331L123 330z"/>
<path style="fill:#a9dfef; stroke:none;" d="M120 331L121 332L120 331z"/>
<path style="fill:#abb5b8; stroke:none;" d="M121 331L122 332L121 331z"/>
<path style="fill:#a9dfef; stroke:none;" d="M117 332L118 333L117 332z"/>
<path style="fill:#39b7de; stroke:none;" d="M118 332L119 333L118 332z"/>
<path style="fill:#a9dfef; stroke:none;" d="M88.3333 333.667L88.6667 334.333L88.3333 333.667M114 333L115 334L114 333z"/>
<path style="fill:#abb5b8; stroke:none;" d="M115 333L116 334L115 333z"/>
<path style="fill:#a9dfef; stroke:none;" d="M112 334L113 335L112 334z"/>
<path style="fill:#39b7de; stroke:none;" d="M113 334L114 335L113 334z"/>
<path style="fill:#abb5b8; stroke:none;" d="M88 335L89 336L88 335z"/>
<path style="fill:#a9dfef; stroke:none;" d="M109 335L110 336L109 335z"/>
<path style="fill:#abb5b8; stroke:none;" d="M110 335L111 336L110 335z"/>
<path style="fill:#a9dfef; stroke:none;" d="M89 336L90 337L89 336M106 336L107 337L106 336z"/>
<path style="fill:#abb5b8; stroke:none;" d="M107 336L108 337L107 336z"/>
<path style="fill:#a9dfef; stroke:none;" d="M103 337L104 338L103 337z"/>
<path style="fill:#abb5b8; stroke:none;" d="M104 337L105 338L104 337z"/>
<path style="fill:#a9dfef; stroke:none;" d="M91 338L92 339L91 338M101 338L102 339L101 338z"/>
<path style="fill:#39b7de; stroke:none;" d="M102 338L103 339L102 338z"/>
<path style="fill:#a9dfef; stroke:none;" d="M92.6667 339.333L93.3333 339.667L92.6667 339.333M98 339L99 340L98 339z"/>
<path style="fill:#abb5b8; stroke:none;" d="M99 339L100 340L99 339z"/>
<path style="fill:#a9dfef; stroke:none;" d="M30 340L30 346L31 346L30 340M414 344L412 356L413 356L414 344z"/>
<path style="fill:#abb5b8; stroke:none;" d="M31 347L32 348L31 347M413.333 347.667L413.667 348.333L413.333 347.667z"/>
<path style="fill:#a9dfef; stroke:none;" d="M31 348L31 351L32 351L31 348M32 352L32 355L33 355L32 352z"/>
<path style="fill:#abb5b8; stroke:none;" d="M412.333 352.667L412.667 353.333L412.333 352.667z"/>
<path style="fill:#a9dfef; stroke:none;" d="M33.3333 355.667L33.6667 356.333L33.3333 355.667z"/>
<path style="fill:#abb5b8; stroke:none;" d="M411.333 355.667L411.667 356.333L411.333 355.667z"/>
<path style="fill:#a9dfef; stroke:none;" d="M411.333 357.667L411.667 358.333L411.333 357.667M34.3333 358.667L34.6667 359.333L34.3333 358.667z"/>
<path style="fill:#abb5b8; stroke:none;" d="M410 358L408 364L409 364L410 358z"/>
<path style="fill:#a9dfef; stroke:none;" d="M35.3333 360.667L35.6667 361.333L35.3333 360.667M410.333 360.667L410.667 361.333L410.333 360.667z"/>
<path style="fill:#abb5b8; stroke:none;" d="M36 362L37 363L36 362z"/>
<path style="fill:#a9dfef; stroke:none;" d="M409.333 362.667L409.667 363.333L409.333 362.667M36 363L37 364L36 363z"/>
<path style="fill:#abb5b8; stroke:none;" d="M37 364L38 365L37 364z"/>
<path style="fill:#a9dfef; stroke:none;" d="M408 364L409 365L408 364M37 365L38 366L37 365z"/>
<path style="fill:#abb5b8; stroke:none;" d="M407 365L405 369L406 369L407 365z"/>
<path style="fill:#a9dfef; stroke:none;" d="M38.3333 366.667L38.6667 367.333L38.3333 366.667M407 366L408 367L407 366M39 368L41 371L39 368M406 368L407 369L406 368M405 369L403 373L405 369z"/>
<path style="fill:#abb5b8; stroke:none;" d="M404 370L405 371L404 370z"/>
<path style="fill:#a9dfef; stroke:none;" d="M41 371L42 372L41 371z"/>
<path style="fill:#abb5b8; stroke:none;" d="M403 371L404 372L403 371z"/>
<path style="fill:#a9dfef; stroke:none;" d="M42 372L45 376L42 372M402 373L383 392L395 394L367 401L400 396C397.445 391.366 390.98 390.666 386 391C390.408 386.033 402.152 380.206 402 373z"/>
<path style="fill:#abb5b8; stroke:none;" d="M44 374L45 375L44 374M401 374L402 375L401 374M400 375L401 376L400 375z"/>
<path style="fill:#a9dfef; stroke:none;" d="M45 376L46 377L45 376z"/>
<path style="fill:#abb5b8; stroke:none;" d="M399 376L400 377L399 376z"/>
<path style="fill:#a9dfef; stroke:none;" d="M46 377L50 381L46 377z"/>
<path style="fill:#abb5b8; stroke:none;" d="M398 377L399 378L398 377M397 378L398 379L397 378M396 379L397 380L396 379M395 380L396 381L395 380z"/>
<path style="fill:#a9dfef; stroke:none;" d="M50 381L52 383L50 381z"/>
<path style="fill:#abb5b8; stroke:none;" d="M51 381L52 382L51 381M394 381L395 382L394 381M393 382L394 383L393 382z"/>
<path style="fill:#a9dfef; stroke:none;" d="M52 383L56 386L56 385L52 383z"/>
<path style="fill:#abb5b8; stroke:none;" d="M53 383L54 384L53 383M392 383L393 384L392 383M390 384L391 385L390 384z"/>
<path style="fill:#39b7de; stroke:none;" d="M229 385L230 386L229 385z"/>
<path style="fill:#abb5b8; stroke:none;" d="M389 385L390 386L389 385z"/>
<path style="fill:#a9dfef; stroke:none;" d="M56 386L56 387L59 388L57 392L62 392L56 386z"/>
<path style="fill:#abb5b8; stroke:none;" d="M388 386L389 387L388 386M59 387L60 388L59 387M386 387L387 388L386 387M60 388L61 389L60 388M385 388L386 389L385 388M62 389L61 392C56.0721 390.824 48.8313 391.738 47 397C133.874 400.73 220.833 401 308 401C329.251 401 350.77 399.97 372 399.039C378.619 398.749 390.781 400.046 395 394L383 390C375.798 392.074 369.56 395.486 362 396.572C338.559 399.938 312.689 397 289 397L156 397C125.933 397 89.4548 403.046 62 389M383.667 389.333L384.333 389.667L383.667 389.333z"/>
<path style="fill:#a9dfef; stroke:none;" d="M41 394L41 396L70 400.17L141 402L366 401L366 400L130 400.986L47 397L56 392C52.0319 389.555 45.0352 392.055 41 394z"/>
</svg>
